<svg preserveAspectRatio="none" width="100%" height="100%" overflow="visible" style="display: block;" viewBox="0 0 20 20" fill="none" xmlns="http://www.w3.org/2000/svg">
<g id="ph:twitter-logo-fill">
<path id="Vector" d="M19.1931 6.06754L16.8572 8.40348C16.3853 13.8738 11.772 18.1254 6.25095 18.1254C5.11658 18.1254 4.18142 17.9457 3.47127 17.591C2.89861 17.3043 2.66424 16.9972 2.60564 16.9097C2.5534 16.8314 2.51953 16.7422 2.50658 16.6489C2.49363 16.5557 2.50192 16.4607 2.53085 16.371C2.55977 16.2814 2.60857 16.1995 2.67361 16.1314C2.73864 16.0633 2.81823 16.0107 2.90642 15.9777C2.92674 15.9699 4.80017 15.2504 5.99002 13.8808C5.33016 13.3383 4.75414 12.7012 4.28064 11.9902C3.31189 10.5519 2.22752 8.05348 2.56189 4.31988C2.57249 4.20125 2.61677 4.08811 2.68951 3.9938C2.76225 3.89948 2.86043 3.82791 2.97248 3.78753C3.08454 3.74714 3.2058 3.73961 3.32198 3.76583C3.43817 3.79205 3.54445 3.85092 3.6283 3.93551C3.65564 3.96285 6.2283 6.52145 9.37361 7.35113V6.87535C9.37241 6.37644 9.47105 5.88234 9.66372 5.42213C9.8564 4.96192 10.1392 4.54491 10.4955 4.19567C10.8415 3.85014 11.2532 3.57742 11.7063 3.39359C12.1595 3.20976 12.6448 3.11856 13.1338 3.12535C13.7897 3.13182 14.4327 3.30789 15.0005 3.63645C15.5682 3.96501 16.0412 4.43487 16.3736 5.00035H18.751C18.8746 5.00026 18.9956 5.03686 19.0984 5.10553C19.2013 5.1742 19.2815 5.27185 19.3288 5.38611C19.3762 5.50037 19.3886 5.62612 19.3644 5.74742C19.3403 5.86872 19.2806 5.98013 19.1931 6.06754Z" fill="var(--fill-0, #001630)"/>
</g>
</svg>
