<svg preserveAspectRatio="none" width="100%" height="100%" overflow="visible" style="display: block;" viewBox="0 0 20 20" fill="none" xmlns="http://www.w3.org/2000/svg">
<g id="facebook">
<g id="BG 111" opacity="0.58">
</g>
<path id="Vector" d="M18.3333 13.4917C18.3333 16.525 16.525 18.3333 13.4917 18.3333H12.5C12.0417 18.3333 11.6667 17.9583 11.6667 17.5V12.6917C11.6667 12.4667 11.85 12.275 12.075 12.275L13.5417 12.25C13.6583 12.2417 13.7583 12.1583 13.7833 12.0417L14.075 10.45C14.1 10.3 13.9833 10.1583 13.825 10.1583L12.05 10.1833C11.8167 10.1833 11.6333 10 11.625 9.77501L11.5917 7.73333C11.5917 7.6 11.7 7.48334 11.8417 7.48334L13.8417 7.45C13.9833 7.45 14.0917 7.34168 14.0917 7.20001L14.0583 5.19999C14.0583 5.05833 13.95 4.95 13.8083 4.95L11.5583 4.98334C10.175 5.00834 9.07501 6.14167 9.10001 7.525L9.14167 9.81667C9.15 10.05 8.96668 10.2333 8.73334 10.2417L7.73333 10.2583C7.59167 10.2583 7.48334 10.3667 7.48334 10.5083L7.50834 12.0917C7.50834 12.2333 7.61666 12.3417 7.75833 12.3417L8.75834 12.325C8.99167 12.325 9.17499 12.5083 9.18332 12.7333L9.25832 17.4833C9.26665 17.95 8.89165 18.3333 8.42499 18.3333H6.50833C3.475 18.3333 1.66667 16.525 1.66667 13.4833V6.50833C1.66667 3.475 3.475 1.66667 6.50833 1.66667H13.4917C16.525 1.66667 18.3333 3.475 18.3333 6.50833V13.4917V13.4917Z" fill="var(--fill-0, #001630)"/>
<g id="Vector_2" opacity="0">
</g>
</g>
</svg>
