<svg preserveAspectRatio="none" width="100%" height="100%" overflow="visible" style="display: block;" viewBox="0 0 20 20" fill="none" xmlns="http://www.w3.org/2000/svg">
<g id="linkedin-svgrepo-com 1">
<path id="Vector" d="M3.4375 5.13687V14.8637C3.4375 15.7819 4.16 16.5044 5.07812 16.5044H14.805C15.2544 16.5044 15.6837 16.2894 15.9575 16.0162C16.2506 15.7231 16.4456 15.3519 16.4456 14.8637V5.13687C16.4456 4.21875 15.7231 3.49625 14.805 3.49625H5.07812C4.59 3.49625 4.21875 3.69187 3.92563 3.98437C3.65188 4.25812 3.4375 4.6875 3.4375 5.13687ZM5.19562 6.42562C5.19562 5.80062 5.70375 5.25375 6.32875 5.25375C6.97312 5.25375 7.50062 5.80062 7.50062 6.42562C7.50062 7.07 6.97312 7.57812 6.32875 7.57812C5.70375 7.57812 5.19562 7.07 5.19562 6.42562ZM8.34 14.4531V8.49625C8.34 8.35937 8.47687 8.2425 8.57437 8.2425H10.2344C10.4688 8.2425 10.4688 8.51625 10.4688 8.69187C10.9375 8.22312 11.5431 8.10562 12.1681 8.10562C13.6919 8.10562 14.6681 8.82812 14.6681 10.43V14.4537C14.6681 14.5906 14.5506 14.7075 14.4337 14.7075H12.715C12.5781 14.7075 12.4806 14.5706 12.4806 14.4537V10.8206C12.4806 10.215 12.305 9.88312 11.6212 9.88312C10.7619 9.88312 10.5469 10.4494 10.5469 11.2112V14.4537C10.5469 14.5906 10.41 14.7075 10.2731 14.7075H8.57375C8.47625 14.7075 8.33937 14.5706 8.33937 14.4537L8.34 14.4531ZM5.23438 14.4531V8.49625C5.23438 8.35937 5.37125 8.2425 5.46875 8.2425H7.16812C7.32437 8.2425 7.42188 8.34 7.42188 8.49625V14.4531C7.42188 14.59 7.30437 14.7069 7.16812 14.7069H5.46875C5.35125 14.7069 5.23438 14.57 5.23438 14.4531Z" fill="var(--fill-0, #001630)"/>
</g>
</svg>
