<svg preserveAspectRatio="none" width="100%" height="100%" overflow="visible" style="display: block;" viewBox="0 0 56 52.128" fill="none" xmlns="http://www.w3.org/2000/svg">
<path id="&#226;&#128;&#156;" d="M51.2985 29.9787C54.4328 29.9787 56 31.5459 56 34.6802V47.4265C56 50.5608 54.4328 52.128 51.2985 52.128H39.1791C36.0448 52.128 34.4776 50.5608 34.4776 47.4265V34.6802C34.4776 27.3668 35.2438 20.9937 36.7761 15.5608C38.3781 10.0583 41.4776 5.25237 46.0746 1.14292C47.607 -0.180461 48.8955 -0.354591 49.9403 0.620534L54.6418 5.00859C55.6866 5.98372 55.4428 7.1678 53.9104 8.56083C51.5423 10.6504 49.592 13.6802 48.0597 17.6504C46.597 21.5509 45.8657 25.6603 45.8657 29.9787H51.2985ZM16.8209 29.9787C19.9552 29.9787 21.5224 31.5459 21.5224 34.6802V47.4265C21.5224 50.5608 19.9552 52.128 16.8209 52.128H4.70149C1.56716 52.128 0 50.5608 0 47.4265V34.6802C0 27.3668 0.766169 20.9937 2.29851 15.5608C3.9005 10.0583 7 5.25237 11.597 1.14292C13.1294 -0.180461 14.4179 -0.354591 15.4627 0.620534L20.1642 5.00859C21.209 5.98372 20.9652 7.1678 19.4328 8.56083C17.0647 10.6504 15.1144 13.6802 13.5821 17.6504C12.1194 21.5509 11.3881 25.6603 11.3881 29.9787H16.8209Z" fill="var(--fill-0, #BA994F)"/>
</svg>
