<svg xmlns="http://www.w3.org/2000/svg" viewBox="0 0 512 512" role="img" aria-label="WhatsApp logo">
  <defs>
    <linearGradient id="a" x1="50%" x2="50%" y1="0%" y2="100%">
      <stop stop-color="#43d854" offset="0%"/>
      <stop stop-color="#28b446" offset="100%"/>
    </linearGradient>
  </defs>
  <path d="M256 0C114.6 0 0 114.6 0 256c0 45 11.7 88.9 34 127.6L14.5 497.5c-1.6 6.7 4.7 12.6 11.2 10.3l111.5-39.8C182.1 489.5 218.5 496 256 496c141.4 0 256-114.6 256-256S397.4 0 256 0Z" fill="url(#a)"/>
  <path fill="#fff" d="M380.5 304.6c-5.6-2.8-33.4-16.5-38.6-18.4-5.2-1.9-9-2.8-12.8 2.8-3.7 5.6-14.7 18.4-18 22.1-3.3 3.7-6.6 4.2-12.2 1.4-5.6-2.8-23.7-8.7-45.2-27.8-16.7-14.9-28-33.3-31.3-38.9-3.3-5.6-.3-8.6 2.5-11.4 2.6-2.6 5.6-6.6 8.5-9.9 2.8-3.3 3.7-5.6 5.6-9.4 1.9-3.7.9-7-0.5-9.8-1.4-2.8-12.8-30.9-17.6-42.2-4.6-11.1-9.3-9.6-12.8-9.8-3.3-.2-7-.2-10.7-.2s-9.8 1.4-15 7c-5.2 5.6-19.7 19.2-19.7 46.8 0 27.6 20.2 54.3 23 58.1 2.8 3.7 39.7 60.7 96.2 85 13.4 5.8 23.9 9.2 32.1 11.8 13.5 4.3 25.8 3.7 35.5 2.2 10.8-1.6 33.4-13.6 38.1-26.7 4.7-13.1 4.7-24.3 3.3-26.7-1.4-2.3-5.1-3.7-10.7-6.5Z"/>
</svg>
